<svg width="55" height="48" viewBox="0 0 55 48" fill="none" xmlns="http://www.w3.org/2000/svg">
<path d="M54.1943 24.0174C54.6393 24.0174 55 23.7046 55 23.3188V0.698585C55 0.31278 54.6393 0 54.1943 0H16.7546C16.5409 0 16.336 0.0735843 16.1849 0.204639L0.236436 14.0335C0.0903418 14.16 0 14.3347 0 14.5278V36.6664C0 37.0522 0.360723 37.365 0.805664 37.365C1.25061 37.365 1.61133 37.0522 1.61133 36.6664V15.2264H15.9682C16.0475 15.5399 16.3693 15.7747 16.7546 15.7747C17.1399 15.7747 17.4617 15.5399 17.541 15.2264H25.9229C26.3679 15.2264 26.7286 14.9136 26.7286 14.5278C26.7286 14.142 26.3679 13.8292 25.9229 13.8292H17.5601V12.2946C17.5601 11.9088 17.1994 11.5961 16.7545 11.5961C16.3095 11.5961 15.9488 11.9088 15.9488 12.2946V13.8292H2.75075L16.0007 2.34026C16.1151 2.60526 16.409 2.79434 16.7546 2.79434C17.1995 2.79434 17.5603 2.48156 17.5603 2.09576V1.39717H52.2492L37.9117 13.8292H29.6828C29.2379 13.8292 28.8771 14.142 28.8771 14.5278C28.8771 14.9136 29.2379 15.2264 29.6828 15.2264H37.4397V32.4803C37.0782 32.5491 36.8074 32.8281 36.8074 33.1622C36.8074 33.4963 37.0782 33.7754 37.4397 33.8441V46.2929H2.73066C2.94615 46.0208 2.91489 45.6461 2.63603 45.4043C2.35716 45.1625 1.92511 45.1355 1.61133 45.3223V39.9264C1.61133 39.5406 1.25061 39.2278 0.805664 39.2278C0.360723 39.2278 0 39.5406 0 39.9264V46.9914C0 47.3772 0.360723 47.69 0.805664 47.69H38.2454C38.468 47.69 38.6694 47.6118 38.8153 47.4853C38.8212 47.4801 54.7209 33.6936 54.7638 33.6564C54.915 33.5255 55 33.3476 55 33.1622V26.5788C55 26.1929 54.6393 25.8802 54.1943 25.8802C53.7494 25.8802 53.3887 26.1929 53.3887 26.5788V32.4636H52.583C52.1381 32.4636 51.7773 32.7764 51.7773 33.1622C51.7773 33.4619 51.9954 33.7167 52.301 33.8159L39.0511 45.305V33.8609H40.821C41.2659 33.8609 41.6266 33.5481 41.6266 33.1623C41.6266 32.7765 41.2659 32.4637 40.821 32.4637H39.0511V14.8172L53.3887 2.38506V23.3188C53.3887 23.7046 53.7494 24.0174 54.1943 24.0174Z" fill="white"/>
</svg>
