<svg width="55" height="48" viewBox="0 0 55 48" fill="none" xmlns="http://www.w3.org/2000/svg">
<path d="M15.1475 13.3996C15.139 13.3656 15.1287 13.3324 15.1197 13.2986L54.7065 8.88092L53.5489 0L0.757002 5.89119H0V10.3639H1.61133V7.38208H4.94162C9.82824 7.38208 13.8039 11.0605 13.8039 15.582V20.854H1.61133V11.8546H0V45.4537C0 46.6867 1.08421 47.69 2.41699 47.69H45.332V46.1991H2.41699C1.9728 46.1991 1.61133 45.8648 1.61133 45.4537V22.3449H53.3887V45.4537C53.3887 45.8647 53.0273 46.1991 52.583 46.1991H50.166V47.69H52.583C53.9157 47.69 55 46.6868 55 45.4537V13.3996H15.1475ZM24.8228 14.8905H29.5326L26.9545 20.854H22.2448L24.8228 14.8905ZM20.5093 20.854H15.7996L18.3777 14.8905H23.0874L20.5093 20.854ZM31.2681 14.8905H35.9778L33.3997 20.854H28.69L31.2681 14.8905ZM37.7133 14.8905H42.423L39.8449 20.854H35.1352L37.7133 14.8905ZM44.1586 14.8905H48.8683L46.2902 20.854H41.5804L44.1586 14.8905ZM16.6421 14.8905L15.4151 17.7286V15.5819C15.4151 15.3494 15.4062 15.1189 15.3887 14.8904H16.6421V14.8905ZM42.0272 8.79415L37.3513 9.31596L34.02 3.681L38.6958 3.15919L42.0272 8.79415ZM40.4189 2.96687L45.0948 2.44505L48.4261 8.08001L43.7502 8.60182L40.4189 2.96687ZM35.6283 9.50818L30.9524 10.03L27.6211 4.39504L32.2969 3.87323L35.6283 9.50818ZM29.2295 10.2223L24.5535 10.7441L21.2223 5.10907L25.8981 4.58726L29.2295 10.2223ZM22.8306 10.9364L18.1547 11.4582L14.8234 5.82321L19.4992 5.3014L22.8306 10.9364ZM52.9139 7.57927L50.1489 7.88779L46.8177 2.25283L52.142 1.65866L52.9139 7.57927ZM8.63156 6.51418L13.1005 6.01553L16.4319 11.6505L14.6092 11.8539C13.4996 9.40014 11.3288 7.45692 8.63156 6.51418ZM53.3887 20.854H48.0257L50.6038 14.8905H53.3887V20.854Z" fill="white"/>
<path d="M46.9434 46.199H48.5547V47.6899H46.9434V46.199Z" fill="white"/>
<path d="M4.48486 15.9817H6.09619V17.4726H4.48486V15.9817Z" fill="white"/>
<path d="M4.48486 11.509H6.09619V12.9999H4.48486V11.509Z" fill="white"/>
<path d="M9.31885 15.9817H10.9302V17.4726H9.31885V15.9817Z" fill="white"/>
<path d="M12.998 36.98H37.1678V38.4709H12.998V36.98Z" fill="white"/>
<path d="M17.832 29.5256H42.0017V31.0165H17.832V29.5256Z" fill="white"/>
<path d="M12.998 29.5256H16.2207V31.0165H12.998V29.5256Z" fill="white"/>
<path d="M38.7793 36.98H42.002V38.4709H38.7793V36.98Z" fill="white"/>
<path d="M50.166 26.8174H51.7773V28.3083H50.166V26.8174Z" fill="white"/>
<path d="M50.166 23.8357H51.7773V25.3266H50.166V23.8357Z" fill="white"/>
</svg>
