<svg width="57" height="50" viewBox="0 0 57 50" fill="none" xmlns="http://www.w3.org/2000/svg">
<path d="M34.26 33.1001H22.73V37.6501H34.26V33.1001Z" stroke="white" stroke-width="2" stroke-miterlimit="10" stroke-linecap="round" stroke-linejoin="round"/>
<path d="M24.76 33.0899C24.31 28.2099 20.68 25.7199 20.68 25.7199L28.49 12.1499L36.32 25.7199C36.32 25.7199 32.68 28.2099 32.24 33.0899" stroke="white" stroke-width="2" stroke-miterlimit="10" stroke-linecap="round" stroke-linejoin="round"/>
<path d="M28.5 33.0999V27.1399" stroke="white" stroke-width="2" stroke-miterlimit="10" stroke-linecap="round" stroke-linejoin="round"/>
<path d="M30.35 25.2001C30.35 26.2701 29.52 27.1401 28.5 27.1401C27.48 27.1401 26.65 26.2701 26.65 25.2001C26.65 24.1301 27.48 23.2601 28.5 23.2601C29.52 23.2501 30.35 24.1201 30.35 25.2001Z" stroke="white" stroke-width="2" stroke-miterlimit="10" stroke-linecap="round" stroke-linejoin="round"/>
<path d="M31.5 4.25C42.55 5.79 51.07 15.74 51.07 27.78" stroke="white" stroke-width="2" stroke-miterlimit="10" stroke-linecap="round" stroke-linejoin="round"/>
<path d="M5.92999 27.78C5.92999 15.65 14.58 5.63997 25.74 4.21997" stroke="white" stroke-width="2" stroke-miterlimit="10" stroke-linecap="round" stroke-linejoin="round"/>
<path d="M50.23 4.03003H31.5" stroke="white" stroke-width="2" stroke-miterlimit="10" stroke-linecap="round" stroke-linejoin="round"/>
<path d="M25.74 4.03003H6.77002" stroke="white" stroke-width="2" stroke-miterlimit="10" stroke-linecap="round" stroke-linejoin="round"/>
<path d="M31.5 1H25.73V7.07H31.5V1Z" stroke="white" stroke-width="2" stroke-miterlimit="10" stroke-linecap="round" stroke-linejoin="round"/>
<path d="M6.77 1H1V7.07H6.77V1Z" stroke="white" stroke-width="2" stroke-miterlimit="10" stroke-linecap="round" stroke-linejoin="round"/>
<path d="M56 1H50.23V7.07H56V1Z" stroke="white" stroke-width="2" stroke-miterlimit="10" stroke-linecap="round" stroke-linejoin="round"/>
<path d="M53.95 27.78H48.18V33.85H53.95V27.78Z" stroke="white" stroke-width="2" stroke-miterlimit="10" stroke-linecap="round" stroke-linejoin="round"/>
<path d="M8.81999 27.78H3.04999V33.85H8.81999V27.78Z" stroke="white" stroke-width="2" stroke-miterlimit="10" stroke-linecap="round" stroke-linejoin="round"/>
<path d="M33.15 37.6499H23.86V48.6899H33.15V37.6499Z" stroke="white" stroke-width="2" stroke-miterlimit="10" stroke-linecap="round" stroke-linejoin="round"/>
</svg>
