<svg width="44" height="62" viewBox="0 0 44 62" fill="none" xmlns="http://www.w3.org/2000/svg">
<path d="M2.001 61.998H42C43.103 61.998 44 61.101 44 59.998V53C44 48.037 39.963 44 35 44H30V39.834C34.774 37.063 38 31.906 38 25.999V16.998C38 14.38 37.388 11.908 36.326 9.691C36.3 9.611 36.263 9.539 36.218 9.467C33.435 3.867 27.669 0 21.002 0C11.629 0 4.004 7.625 4.004 16.998V18.998C4.004 19.04 4.024 19.077 4.028 19.118C4.036 19.185 4.046 19.249 4.067 19.312C4.088 19.374 4.115 19.428 4.147 19.483C4.178 19.539 4.21 19.591 4.252 19.64C4.294 19.689 4.34 19.729 4.391 19.769C4.441 19.809 4.49 19.844 4.547 19.874C4.606 19.905 4.667 19.925 4.733 19.943C4.773 19.955 4.805 19.979 4.847 19.985C5.242 20.047 5.618 20.095 5.999 20.146V25.999C5.999 31.906 9.225 37.062 13.999 39.834V43.998L9.002 43.999C4.038 43.999 0 48.037 0 53.001L0.0010004 59.998C0.0010004 61.101 0.898 61.998 2.001 61.998ZM22 47.028L23.434 47.386L22.442 48.999H21.559L20.567 47.386L22 47.028ZM21.834 51H22.166L23.803 59.998H20.198L21.834 51ZM42 53V59.998H25.834L24.052 50.197L25.468 47.895L25.758 47.967C25.838 47.987 25.919 47.997 26.001 47.997C26.104 47.997 26.206 47.978 26.306 47.946C26.344 47.933 26.376 47.913 26.411 47.896C26.46 47.874 26.51 47.859 26.555 47.829L29.3 45.999H35C38.859 46 42 49.141 42 53ZM36 16.998V18.275C34.527 16.725 33.196 15.83 31.909 15.379L35.071 11.852C35.661 13.46 36 15.188 36 16.998ZM21.002 2C26.685 2 31.639 5.177 34.183 9.848L29.561 15.003C28.263 15.024 26.94 15.371 25.493 15.842C25.486 15.844 25.479 15.845 25.473 15.848C25.058 15.983 24.637 16.124 24.199 16.273C20.448 17.549 15.402 19.262 7.024 18.268C7.016 18.268 7.009 18.263 7.001 18.263C6.998 18.263 6.996 18.264 6.993 18.264C6.672 18.225 6.336 18.176 6.005 18.129V16.999C6.004 8.728 12.732 2 21.002 2ZM14.934 20.439C19.188 20.081 22.301 19.03 24.842 18.166C25.167 18.056 25.478 17.95 25.78 17.85C28.956 19.324 31 22.476 31 25.999C31 30.961 26.963 34.999 22 34.999C17.037 34.999 13 30.961 13 25.999C13 23.977 13.689 22.021 14.934 20.439ZM8 25.999V20.378C9.6 20.526 11.075 20.579 12.446 20.559C11.508 22.207 11 24.079 11 25.999C11 32.064 15.935 36.999 22 36.999C28.065 36.999 33 32.064 33 25.999C33 22.427 31.288 19.157 28.489 17.117C31.01 16.697 32.987 17.494 36 21.348V25.999C36 33.719 29.72 39.999 22 39.999C14.28 39.999 8 33.719 8 25.999ZM22 41.999C24.122 41.999 26.146 41.575 28 40.821V44.463L25.812 45.921L22.242 45.028C22.227 45.024 22.213 45.029 22.198 45.026C22.135 45.012 22.069 45.016 22.003 45.016C21.933 45.016 21.864 45.012 21.797 45.026C21.783 45.029 21.771 45.025 21.758 45.028L18.189 45.921L16 44.462V40.821C17.854 41.575 19.878 41.999 22 41.999ZM9.002 45.999L14.698 45.998L17.446 47.83C17.491 47.86 17.541 47.875 17.59 47.897C17.625 47.914 17.658 47.934 17.695 47.947C17.795 47.979 17.897 47.998 18 47.998C18.082 47.998 18.164 47.987 18.243 47.968L18.532 47.896L19.948 50.199L18.166 59.999H2.001L2 53.001C2 49.14 5.141 45.999 9.002 45.999Z" fill="white"/>
<path d="M17.999 28.997C18.255 28.997 18.511 28.899 18.706 28.704C19.097 28.314 19.097 27.681 18.706 27.29L17.414 25.998L18.706 24.706C19.097 24.315 19.097 23.682 18.706 23.292C18.315 22.901 17.683 22.901 17.292 23.292L15.293 25.292C15.098 25.486 15 25.742 15 25.998C15 26.254 15.098 26.51 15.293 26.705L17.292 28.705C17.487 28.899 17.743 28.997 17.999 28.997Z" fill="white"/>
<path d="M25.297 28.704C25.492 28.899 25.748 28.997 26.004 28.997C26.26 28.997 26.516 28.899 26.711 28.704L28.71 26.704C28.905 26.509 29.003 26.253 29.003 25.997C29.003 25.741 28.905 25.485 28.71 25.29L26.711 23.29C26.32 22.899 25.688 22.899 25.297 23.29C24.906 23.68 24.906 24.313 25.297 24.704L26.589 25.996L25.297 27.288C24.906 27.681 24.906 28.314 25.297 28.704Z" fill="white"/>
<path d="M20.685 29.946C20.79 29.981 20.897 29.998 21.001 29.998C21.42 29.998 21.81 29.733 21.949 29.313L23.948 23.314C24.123 22.79 23.84 22.224 23.316 22.049C22.788 21.872 22.226 22.158 22.051 22.682L20.052 28.681C19.878 29.206 20.161 29.771 20.685 29.946Z" fill="white"/>
</svg>
