<svg width="36" height="64" viewBox="0 0 36 64" fill="none" xmlns="http://www.w3.org/2000/svg">
<path d="M15.03 5C15.582 5 16.03 4.553 16.03 4C16.03 3.447 15.582 3 15.03 3H15.02C14.468 3 14.026 3.447 14.026 4C14.026 4.553 14.478 5 15.03 5Z" fill="white"/>
<path d="M18 5H21C21.553 5 22 4.553 22 4C22 3.447 21.553 3 21 3H18C17.447 3 17 3.447 17 4C17 4.553 17.447 5 18 5Z" fill="white"/>
<path d="M36 57V6.002C36 2.697 33.315 0.01 30.013 0.003C30.009 0.003 30.005 0 30 0H6C2.691 0 0 2.691 0 6V57C0 60.859 3.141 64 7 64H29C32.859 64 36 60.859 36 57ZM34 50H2V8.002H34V50ZM2 52H18H34V53C34 55.757 31.757 58 29 58H18H7C4.243 58 2 55.757 2 53V52ZM6 2H29.99C29.994 2 29.996 2.002 30 2.002C32.206 2.002 34 3.796 34 6.002H2V6C2 3.794 3.794 2 6 2ZM29 62H7C4.582 62 2.562 60.274 2.1 57.99C3.364 59.231 5.094 60 7 60H29C30.906 60 32.636 59.231 33.9 57.99C33.438 60.274 31.418 62 29 62Z" fill="white"/>
<path d="M15 55C15 56.654 16.346 58 18 58C19.654 58 21 56.654 21 55C21 53.346 19.654 52 18 52C16.346 52 15 53.346 15 55ZM18 54C18.552 54 19 54.448 19 55C19 55.552 18.552 56 18 56C17.448 56 17 55.552 17 55C17 54.448 17.448 54 18 54Z" fill="white"/>
<path d="M9 42.998H27C29.757 42.998 32 40.755 32 37.998V19.998C32 17.241 29.757 14.998 27 14.998H9C6.243 14.998 4 17.241 4 19.998V37.998C4 40.755 6.243 42.998 9 42.998ZM6 19.998C6 18.344 7.346 16.998 9 16.998H27C28.654 16.998 30 18.344 30 19.998V37.998C30 39.652 28.654 40.998 27 40.998H9C7.346 40.998 6 39.652 6 37.998V19.998Z" fill="white"/>
<path d="M14.001 32.0021C14.257 32.0021 14.513 31.9041 14.708 31.7091C15.099 31.3181 15.099 30.6861 14.708 30.2951L13.416 29.0031L14.708 27.7101C15.099 27.3191 15.099 26.6871 14.708 26.2961C14.317 25.9051 13.685 25.9051 13.294 26.2961L11.295 28.2961C10.904 28.6871 10.904 29.3191 11.295 29.7101L13.294 31.7091C13.489 31.9041 13.745 32.0021 14.001 32.0021Z" fill="white"/>
<path d="M21.299 31.7091C21.494 31.9041 21.75 32.0021 22.006 32.0021C22.262 32.0021 22.518 31.9041 22.713 31.7091L24.712 29.7101C25.103 29.3191 25.103 28.6871 24.712 28.2961L22.713 26.2961C22.322 25.9051 21.69 25.9051 21.299 26.2961C20.908 26.6871 20.908 27.3191 21.299 27.7101L22.591 29.0031L21.299 30.2951C20.908 30.6861 20.908 31.3181 21.299 31.7091Z" fill="white"/>
<path d="M16.687 32.951C16.792 32.986 16.899 33.003 17.003 33.003C17.422 33.003 17.813 32.738 17.952 32.319L19.95 26.319C20.125 25.795 19.842 25.228 19.318 25.054C18.791 24.879 18.227 25.162 18.053 25.686L16.054 31.686C15.88 32.211 16.163 32.777 16.687 32.951Z" fill="white"/>
<path d="M18 40C24.065 40 29 35.065 29 29C29 22.935 24.065 18 18 18C11.935 18 7 22.935 7 29C7 35.065 11.935 40 18 40ZM18 20C22.963 20 27 24.037 27 29C27 33.963 22.963 38 18 38C13.037 38 9 33.963 9 29C9 24.037 13.037 20 18 20Z" fill="white"/>
</svg>
