<svg width="61" height="48" viewBox="0 0 61 48" fill="none" xmlns="http://www.w3.org/2000/svg">
<path d="M21.83 12.1799C21.83 12.1799 24.92 14.2199 28 12.1799L27.15 26.6899C27.12 27.8999 26.13 28.8599 24.92 28.8599C23.71 28.8599 22.72 27.8999 22.69 26.6899L21.83 12.1799Z" stroke="white" stroke-width="2" stroke-miterlimit="10" stroke-linecap="round" stroke-linejoin="round"/>
<path d="M28 12.18C28 12.18 29.72 11.2 29.06 8.41C28.35 5.38 25.48 5.23 25.82 1C25.82 1 18.48 7.31 21.82 12.18" stroke="white" stroke-width="2" stroke-miterlimit="10" stroke-linecap="round" stroke-linejoin="round"/>
<path d="M13.54 1H15.44C16.77 1 17.85 2.08 17.85 3.41V23.15H11.13V3.41C11.13 2.08 12.21 1 13.54 1Z" stroke="white" stroke-width="2" stroke-miterlimit="10" stroke-linecap="round" stroke-linejoin="round"/>
<path d="M17.85 4.37988H11.13" stroke="white" stroke-width="2" stroke-miterlimit="10" stroke-linecap="round" stroke-linejoin="round"/>
<path d="M17.85 23.1499L14.49 28.8699L11.13 23.1499" stroke="white" stroke-width="2" stroke-miterlimit="10" stroke-linecap="round" stroke-linejoin="round"/>
<path d="M21.55 6.67993H17.85" stroke="white" stroke-width="2" stroke-miterlimit="10" stroke-linecap="round" stroke-linejoin="round"/>
<path d="M28.29 6.67993H57.07C58.53 6.67993 59.72 7.86993 59.72 9.32993V43.7399C59.72 45.2099 58.53 46.3999 57.07 46.3999H3.65C2.19 46.3999 1 45.2099 1 43.7399V9.32993C1 7.86993 2.19 6.67993 3.65 6.67993H11.13" stroke="white" stroke-width="2" stroke-miterlimit="10" stroke-linecap="round" stroke-linejoin="round"/>
<path d="M21.16 10.78H17.85" stroke="white" stroke-width="2" stroke-miterlimit="10" stroke-linecap="round" stroke-linejoin="round"/>
<path d="M29.0301 10.78H48.0901V42.48H4.56006V10.78H11.1301" stroke="white" stroke-width="2" stroke-miterlimit="10" stroke-linecap="round" stroke-linejoin="round"/>
<path d="M56.27 10.79H52.01V19.08H56.27V10.79Z" stroke="white" stroke-width="2" stroke-miterlimit="10" stroke-linecap="round" stroke-linejoin="round"/>
<path d="M56.27 22.49H52.01V30.78H56.27V22.49Z" stroke="white" stroke-width="2" stroke-miterlimit="10" stroke-linecap="round" stroke-linejoin="round"/>
<path d="M56.27 34.1899H52.01V42.4799H56.27V34.1899Z" stroke="white" stroke-width="2" stroke-miterlimit="10" stroke-linecap="round" stroke-linejoin="round"/>
</svg>
