<svg width="65" height="64" viewBox="0 0 65 64" fill="none" xmlns="http://www.w3.org/2000/svg">
<path d="M22.005 16.9781H42.003C42.556 16.9781 43.003 16.5311 43.003 15.9781V7.97607C43.003 7.42307 42.556 6.97607 42.003 6.97607H22.005C21.452 6.97607 21.005 7.42307 21.005 7.97607V15.9781C21.005 16.5311 21.452 16.9781 22.005 16.9781ZM23.005 8.97607H41.003V14.9781H23.005V8.97607Z" fill="white"/>
<path d="M22.005 19.978H42.003C42.556 19.978 43.003 19.531 43.003 18.978C43.003 18.425 42.556 17.978 42.003 17.978H22.005C21.452 17.978 21.005 18.425 21.005 18.978C21.005 19.531 21.452 19.978 22.005 19.978Z" fill="white"/>
<path d="M43.003 21.978C43.003 21.425 42.556 20.978 42.003 20.978H22.005C21.452 20.978 21.005 21.425 21.005 21.978C21.005 22.531 21.452 22.978 22.005 22.978H42.003C42.556 22.978 43.003 22.531 43.003 21.978Z" fill="white"/>
<path d="M38.003 10.9761H26.005C25.452 10.9761 25.005 11.4231 25.005 11.9761C25.005 12.5291 25.452 12.9761 26.005 12.9761H38.003C38.556 12.9761 39.003 12.5291 39.003 11.9761C39.003 11.4231 38.556 10.9761 38.003 10.9761Z" fill="white"/>
<path d="M0.018 62.976C0.018 63.529 0.465 63.976 1.018 63.976H29.009C29.562 63.976 30.009 63.529 30.009 62.976V40.998C30.009 40.967 29.994 40.941 29.991 40.911V40C29.991 38.346 28.645 37 26.991 37H16.006V32.971H48.003V37H36.999C35.345 37 33.999 38.346 33.999 40V42C33.999 42.031 34.014 42.057 34.017 42.087V62.977C34.017 63.53 34.464 63.977 35.017 63.977H63.008C63.561 63.977 64.008 63.53 64.008 62.977V40.998C64.008 40.967 63.993 40.941 63.99 40.911V40C63.99 38.346 62.644 37 60.99 37H50.003V31.971C50.003 31.418 49.556 30.971 49.003 30.971H33.018V26.977H46.013C46.566 26.977 47.013 26.53 47.013 25.977V4C47.013 3.969 46.998 3.943 46.995 3.913V3C46.995 1.346 45.649 0 43.995 0H20.004C18.35 0 17.004 1.346 17.004 3V5C17.004 5.031 17.019 5.057 17.022 5.087V25.977C17.022 26.53 17.469 26.977 18.022 26.977H31.018V30.971H15.006C14.453 30.971 14.006 31.418 14.006 31.971V37H3C1.346 37 0 38.346 0 40V42C0 42.031 0.015 42.057 0.018 42.087V62.976ZM60.99 39C61.541 39 61.988 39.447 61.99 39.998H35.999C36 39.447 36.448 39 36.999 39H60.99ZM36.017 61.976V41.998H61.991V42C61.991 42.031 62.006 42.057 62.009 42.087V61.977L36.017 61.976ZM20.004 2H43.995C44.547 2 44.995 2.448 44.995 3H19.004C19.004 2.448 19.452 2 20.004 2ZM19.022 5H44.996C44.996 5.031 45.011 5.057 45.014 5.087V24.977H19.022V5ZM3 39H26.991C27.542 39 27.99 39.447 27.991 39.998H2C2.002 39.447 2.449 39 3 39ZM2.018 61.976V41.998H27.992V42C27.992 42.031 28.007 42.057 28.01 42.087V61.977L2.018 61.976Z" fill="white"/>
<path d="M5.00403 51.9741H13.004C13.557 51.9741 14.004 51.5271 14.004 50.9741V44.9761C14.004 44.4231 13.557 43.9761 13.004 43.9761H5.00403C4.45103 43.9761 4.00403 44.4231 4.00403 44.9761V50.9741C4.00403 51.5271 4.45103 51.9741 5.00403 51.9741ZM6.00403 45.9761H12.004V49.9741H6.00403V45.9761Z" fill="white"/>
<path d="M47.004 43.9761H39.004C38.451 43.9761 38.004 44.4231 38.004 44.9761V52.9761C38.004 53.5291 38.451 53.9761 39.004 53.9761H47.004C47.557 53.9761 48.004 53.5291 48.004 52.9761V44.9761C48.004 44.4241 47.557 43.9761 47.004 43.9761ZM46.004 51.9761H40.004V45.9761H46.004V51.9761Z" fill="white"/>
<path d="M25.015 43.9761H17.016C16.463 43.9761 16.016 44.4231 16.016 44.9761C16.016 45.5291 16.463 45.9761 17.016 45.9761H25.015C25.568 45.9761 26.015 45.5291 26.015 44.9761C26.015 44.4231 25.567 43.9761 25.015 43.9761Z" fill="white"/>
<path d="M25.015 46.9741H17.016C16.463 46.9741 16.016 47.4211 16.016 47.9741C16.016 48.5271 16.463 48.9741 17.016 48.9741H25.015C25.568 48.9741 26.015 48.5271 26.015 47.9741C26.015 47.4211 25.567 46.9741 25.015 46.9741Z" fill="white"/>
<path d="M25.015 49.9741H17.016C16.463 49.9741 16.016 50.4211 16.016 50.9741C16.016 51.5271 16.463 51.9741 17.016 51.9741H25.015C25.568 51.9741 26.015 51.5271 26.015 50.9741C26.015 50.4211 25.567 49.9741 25.015 49.9741Z" fill="white"/>
<path d="M47.004 54.978H39.005C38.452 54.978 38.005 55.425 38.005 55.978C38.005 56.531 38.452 56.978 39.005 56.978H47.004C47.557 56.978 48.004 56.531 48.004 55.978C48.004 55.425 47.557 54.978 47.004 54.978Z" fill="white"/>
<path d="M47.004 57.978H39.005C38.452 57.978 38.005 58.425 38.005 58.978C38.005 59.531 38.452 59.978 39.005 59.978H47.004C47.557 59.978 48.004 59.531 48.004 58.978C48.004 58.425 47.557 57.978 47.004 57.978Z" fill="white"/>
<path d="M59.004 43.9761H51.004C50.451 43.9761 50.004 44.4231 50.004 44.9761V52.9761C50.004 53.5291 50.451 53.9761 51.004 53.9761H59.004C59.557 53.9761 60.004 53.5291 60.004 52.9761V44.9761C60.004 44.4241 59.557 43.9761 59.004 43.9761ZM58.004 51.9761H52.004V45.9761H58.004V51.9761Z" fill="white"/>
<path d="M59.004 54.978H51.005C50.452 54.978 50.005 55.425 50.005 55.978C50.005 56.531 50.452 56.978 51.005 56.978H59.004C59.557 56.978 60.004 56.531 60.004 55.978C60.004 55.425 59.557 54.978 59.004 54.978Z" fill="white"/>
<path d="M59.004 57.978H51.005C50.452 57.978 50.005 58.425 50.005 58.978C50.005 59.531 50.452 59.978 51.005 59.978H59.004C59.557 59.978 60.004 59.531 60.004 58.978C60.004 58.425 59.557 57.978 59.004 57.978Z" fill="white"/>
<path d="M25.015 53.9741H5.00403C4.45103 53.9741 4.00403 54.4211 4.00403 54.9741V58.9761C4.00403 59.5291 4.45103 59.9761 5.00403 59.9761H25.015C25.568 59.9761 26.015 59.5291 26.015 58.9761V54.9741C26.015 54.4221 25.567 53.9741 25.015 53.9741ZM24.015 57.9761H6.00403V55.9741H24.015V57.9761Z" fill="white"/>
</svg>
